<?xml version="1.0" encoding="utf-8"?>
<!-- Generator: Adobe Illustrator 19.1.0, SVG Export Plug-In . SVG Version: 6.00 Build 0)  -->
<svg version="1.1" id="Layer_1" xmlns="http://www.w3.org/2000/svg" xmlns:xlink="http://www.w3.org/1999/xlink" x="0px" y="0px"
	 viewBox="0 0 192 192" style="enable-background:new 0 0 192 192;" xml:space="preserve">
<g>
	<path d="M39.9,189.6c-3,0-6.1-0.7-8.9-2.2c-6.1-3.2-9.9-9.6-9.9-16.5V96c0-10.4,8.4-18.7,18.7-18.7S58.5,85.7,58.5,96v39.9
		L118.4,96L29.5,36.7c-8.6-5.7-10.9-17.4-5.2-26c5.7-8.6,17.4-10.9,26-5.2l112.3,74.9c5.2,3.5,8.3,9.3,8.3,15.6s-3.1,12.1-8.3,15.6
		L50.3,186.4C47.1,188.5,43.5,189.6,39.9,189.6z"/>
</g>
</svg>
